<svg width="199" height="143" viewBox="0 0 199 143" fill="none" xmlns="http://www.w3.org/2000/svg">
<path d="M1.03026 92.8925C11.4631 77.7871 32.975 52.0765 71.9666 28.7929C110.958 5.50936 170.975 -6.83208 178.013 5.35952C185.052 17.5511 143.036 44.3036 96.8309 71.8591C50.6256 99.4146 16.9309 120.433 10.9252 110.031C4.9196 99.629 45.1898 63.0024 80.0855 42.8554C114.981 22.7083 178.14 5.57924 185.244 17.8839C192.348 30.1885 161.401 62.4117 108.882 92.733C56.3643 123.054 24.7528 133.981 18.6636 123.434C12.5744 112.887 59.0189 74.0611 88.3314 57.1375C117.644 40.214 187.912 22.5041 196.535 37.4394C205.158 52.3748 148.042 93.2685 118.651 109.652C89.2589 126.035 34.5178 150.895 27.9243 139.474C21.3307 128.054 68.2624 100.951 102.54 81.7468C129.961 66.3836 197.024 38.4029 206.049 53.9188" stroke="white"/>
</svg>
